<?xml version="1.0" encoding="utf-8" ?>
<svg baseProfile="full" height="360px" version="1.1" width="680px" xmlns="http://www.w3.org/2000/svg" xmlns:ev="http://www.w3.org/2001/xml-events" xmlns:xlink="http://www.w3.org/1999/xlink"><defs /><rect fill="#0a0f1a" height="360" width="680" x="0" y="0" /><text fill="#e8f1ff" font-family="Segoe UI" font-size="22px" x="30" y="46">Operational Defense Coverage</text><text fill="#7ea6ff" font-size="13px" x="30" y="72">Blue Team Defense Operations • Analyst Dashboard</text><text fill="#e8f1ff" font-size="14px" x="30" y="100">Threat Detection Engineering</text><rect fill="#0e2238" height="12" rx="5" ry="5" width="420" x="180" y="90" /><rect fill="#00c8ff" height="12" opacity="0.9" rx="5" ry="5" width="327.6" x="180" y="90" /><circle cx="186" cy="96.0" fill="#9be9ff" r="4"><animateMotion dur="2.0s" path="M0,0 L315.6,0" repeatCount="indefinite" /></circle><text fill="#99c6ff" font-size="13px" x="616" y="101">78%</text><text fill="#e8f1ff" font-size="14px" x="30" y="144">Endpoint Telemetry Analysis</text><rect fill="#0e2238" height="12" rx="5" ry="5" width="420" x="180" y="134" /><rect fill="#00c8ff" height="12" opacity="0.9" rx="5" ry="5" width="386.4" x="180" y="134" /><circle cx="186" cy="140.0" fill="#9be9ff" r="4"><animateMotion dur="2.4s" path="M0,0 L374.4,0" repeatCount="indefinite" /></circle><text fill="#99c6ff" font-size="13px" x="616" y="145">92%</text><text fill="#e8f1ff" font-size="14px" x="30" y="188">SIEM Hunting &amp; Correlation</text><rect fill="#0e2238" height="12" rx="5" ry="5" width="420" x="180" y="178" /><rect fill="#00c8ff" height="12" opacity="0.9" rx="5" ry="5" width="352.8" x="180" y="178" /><circle cx="186" cy="184.0" fill="#9be9ff" r="4"><animateMotion dur="2.8s" path="M0,0 L340.8,0" repeatCount="indefinite" /></circle><text fill="#99c6ff" font-size="13px" x="616" y="189">84%</text><text fill="#e8f1ff" font-size="14px" x="30" y="232">Incident Response Readiness</text><rect fill="#0e2238" height="12" rx="5" ry="5" width="420" x="180" y="222" /><rect fill="#00c8ff" height="12" opacity="0.9" rx="5" ry="5" width="298.2" x="180" y="222" /><circle cx="186" cy="228.0" fill="#9be9ff" r="4"><animateMotion dur="3.2s" path="M0,0 L286.2,0" repeatCount="indefinite" /></circle><text fill="#99c6ff" font-size="13px" x="616" y="233">71%</text><text fill="#e8f1ff" font-size="14px" x="30" y="276">Threat Intel Mapping</text><rect fill="#0e2238" height="12" rx="5" ry="5" width="420" x="180" y="266" /><rect fill="#00c8ff" height="12" opacity="0.9" rx="5" ry="5" width="277.2" x="180" y="266" /><circle cx="186" cy="272.0" fill="#9be9ff" r="4"><animateMotion dur="3.6s" path="M0,0 L265.2,0" repeatCount="indefinite" /></circle><text fill="#99c6ff" font-size="13px" x="616" y="277">66%</text></svg>