<?xml version="1.0" encoding="utf-8" ?>
<svg baseProfile="full" height="300px" version="1.1" width="680px" xmlns="http://www.w3.org/2000/svg" xmlns:ev="http://www.w3.org/2001/xml-events" xmlns:xlink="http://www.w3.org/1999/xlink"><defs /><rect fill="#0a0f1a" height="300" width="680" x="0" y="0" /><text fill="#e8f1ff" font-family="Segoe UI" font-size="20px" x="28" y="40">Operational Defense Coverage</text><text fill="#7ea6ff" font-size="12px" x="28" y="60">Blue Team Defense Operations • Analyst Dashboard</text><text fill="#e8f1ff" font-size="13px" x="28" y="93">Threat Detection Engineering</text><rect fill="#0e2238" height="10" rx="5" ry="5" width="390" x="210" y="85" /><rect fill="#00c8ff" height="10" opacity="0.9" rx="5" ry="5" width="304.2" x="210" y="85" /><circle cx="216" cy="90.0" fill="#baf2ff" r="3.5"><animateMotion dur="2.0s" path="M0,0 L292.2,0" repeatCount="indefinite" /></circle><text fill="#9ccaff" font-size="12px" x="614" y="94">78%</text><text fill="#e8f1ff" font-size="13px" x="28" y="133">Endpoint Telemetry Analysis</text><rect fill="#0e2238" height="10" rx="5" ry="5" width="390" x="210" y="125" /><rect fill="#00c8ff" height="10" opacity="0.9" rx="5" ry="5" width="358.8" x="210" y="125" /><circle cx="216" cy="130.0" fill="#baf2ff" r="3.5"><animateMotion dur="2.35s" path="M0,0 L346.8,0" repeatCount="indefinite" /></circle><text fill="#9ccaff" font-size="12px" x="614" y="134">92%</text><text fill="#e8f1ff" font-size="13px" x="28" y="173">SIEM Hunting &amp; Correlation</text><rect fill="#0e2238" height="10" rx="5" ry="5" width="390" x="210" y="165" /><rect fill="#00c8ff" height="10" opacity="0.9" rx="5" ry="5" width="327.6" x="210" y="165" /><circle cx="216" cy="170.0" fill="#baf2ff" r="3.5"><animateMotion dur="2.7s" path="M0,0 L315.6,0" repeatCount="indefinite" /></circle><text fill="#9ccaff" font-size="12px" x="614" y="174">84%</text><text fill="#e8f1ff" font-size="13px" x="28" y="213">Incident Response Readiness</text><rect fill="#0e2238" height="10" rx="5" ry="5" width="390" x="210" y="205" /><rect fill="#00c8ff" height="10" opacity="0.9" rx="5" ry="5" width="276.9" x="210" y="205" /><circle cx="216" cy="210.0" fill="#baf2ff" r="3.5"><animateMotion dur="3.05s" path="M0,0 L264.9,0" repeatCount="indefinite" /></circle><text fill="#9ccaff" font-size="12px" x="614" y="214">71%</text><text fill="#e8f1ff" font-size="13px" x="28" y="253">Threat Intel Mapping</text><rect fill="#0e2238" height="10" rx="5" ry="5" width="390" x="210" y="245" /><rect fill="#00c8ff" height="10" opacity="0.9" rx="5" ry="5" width="257.4" x="210" y="245" /><circle cx="216" cy="250.0" fill="#baf2ff" r="3.5"><animateMotion dur="3.4s" path="M0,0 L245.39999999999998,0" repeatCount="indefinite" /></circle><text fill="#9ccaff" font-size="12px" x="614" y="254">66%</text></svg>