<?xml version="1.0" encoding="utf-8" ?>
<svg baseProfile="tiny" height="420px" version="1.2" width="650px" xmlns="http://www.w3.org/2000/svg" xmlns:ev="http://www.w3.org/2001/xml-events" xmlns:xlink="http://www.w3.org/1999/xlink"><defs /><rect fill="#0a0f12" height="100%" width="100%" x="0" y="0" /><text fill="#00e6ff" font-family="Consolas" font-size="20px" x="20" y="40">DEFENSIVE COVERAGE — MITRE ATT&amp;CK</text><text fill="#7fffd4" font-family="Consolas" font-size="13px" x="20" y="68">Live SOC Simulation Dashboard</text><text fill="#9fa6ad" font-family="Consolas" font-size="11px" x="20" y="95">Last Update: 2025-12-28 21:13:16 UTC</text><text fill="#e6e6e6" font-family="Consolas" font-size="12px" x="20" y="141">Initial Access</text><rect fill="#1d1f21" height="14" rx="6" ry="6" width="360" x="170" y="130" /><rect fill="#42f57b" height="14" rx="6" ry="6" width="252.0" x="170" y="130" /><text fill="#42f57b" font-family="Consolas" font-size="12px" x="544" y="141">70%</text><circle cx="170" cy="137" fill="#00e6ff" r="4"><animateMotion dur="2.0s" path="M0,0 L251.99999999999997,0" repeatCount="indefinite" /></circle><text fill="#e6e6e6" font-family="Consolas" font-size="12px" x="20" y="175">Execution</text><rect fill="#1d1f21" height="14" rx="6" ry="6" width="360" x="170" y="164" /><rect fill="#42f57b" height="14" rx="6" ry="6" width="306.0" x="170" y="164" /><text fill="#42f57b" font-family="Consolas" font-size="12px" x="544" y="175">85%</text><circle cx="170" cy="171" fill="#00e6ff" r="4"><animateMotion dur="2.4s" path="M0,0 L306.0,0" repeatCount="indefinite" /></circle><text fill="#e6e6e6" font-family="Consolas" font-size="12px" x="20" y="209">Persistence</text><rect fill="#1d1f21" height="14" rx="6" ry="6" width="360" x="170" y="198" /><rect fill="#42f57b" height="14" rx="6" ry="6" width="234.0" x="170" y="198" /><text fill="#42f57b" font-family="Consolas" font-size="12px" x="544" y="209">65%</text><circle cx="170" cy="205" fill="#00e6ff" r="4"><animateMotion dur="2.8s" path="M0,0 L234.0,0" repeatCount="indefinite" /></circle><text fill="#e6e6e6" font-family="Consolas" font-size="12px" x="20" y="243">Privilege Escalation</text><rect fill="#1d1f21" height="14" rx="6" ry="6" width="360" x="170" y="232" /><rect fill="#42f57b" height="14" rx="6" ry="6" width="270.0" x="170" y="232" /><text fill="#42f57b" font-family="Consolas" font-size="12px" x="544" y="243">75%</text><circle cx="170" cy="239" fill="#00e6ff" r="4"><animateMotion dur="3.2s" path="M0,0 L270.0,0" repeatCount="indefinite" /></circle><text fill="#e6e6e6" font-family="Consolas" font-size="12px" x="20" y="277">Defense Evasion</text><rect fill="#1d1f21" height="14" rx="6" ry="6" width="360" x="170" y="266" /><rect fill="#42f57b" height="14" rx="6" ry="6" width="324.0" x="170" y="266" /><text fill="#42f57b" font-family="Consolas" font-size="12px" x="544" y="277">90%</text><circle cx="170" cy="273" fill="#00e6ff" r="4"><animateMotion dur="3.6s" path="M0,0 L324.0,0" repeatCount="indefinite" /></circle><text fill="#e6e6e6" font-family="Consolas" font-size="12px" x="20" y="311">Credential Access</text><rect fill="#1d1f21" height="14" rx="6" ry="6" width="360" x="170" y="300" /><rect fill="#42f57b" height="14" rx="6" ry="6" width="288.0" x="170" y="300" /><text fill="#42f57b" font-family="Consolas" font-size="12px" x="544" y="311">80%</text><circle cx="170" cy="307" fill="#00e6ff" r="4"><animateMotion dur="4.0s" path="M0,0 L288.0,0" repeatCount="indefinite" /></circle><text fill="#e6e6e6" font-family="Consolas" font-size="12px" x="20" y="345">Discovery</text><rect fill="#1d1f21" height="14" rx="6" ry="6" width="360" x="170" y="334" /><rect fill="#42f57b" height="14" rx="6" ry="6" width="316.8" x="170" y="334" /><text fill="#42f57b" font-family="Consolas" font-size="12px" x="544" y="345">88%</text><circle cx="170" cy="341" fill="#00e6ff" r="4"><animateMotion dur="4.4s" path="M0,0 L316.8,0" repeatCount="indefinite" /></circle><text fill="#e6e6e6" font-family="Consolas" font-size="12px" x="20" y="379">Collection</text><rect fill="#1d1f21" height="14" rx="6" ry="6" width="360" x="170" y="368" /><rect fill="#42f57b" height="14" rx="6" ry="6" width="259.2" x="170" y="368" /><text fill="#42f57b" font-family="Consolas" font-size="12px" x="544" y="379">72%</text><circle cx="170" cy="375" fill="#00e6ff" r="4"><animateMotion dur="4.800000000000001s" path="M0,0 L259.2,0" repeatCount="indefinite" /></circle><text fill="#7aa2c7" font-family="Consolas" font-size="11px" x="20" y="398">Monitoring: SIEM • EDR • IR • SOAR • Log Analytics</text></svg>