<?xml version="1.0" encoding="utf-8" ?>
<svg baseProfile="full" height="370px" version="1.1" width="700px" xmlns="http://www.w3.org/2000/svg" xmlns:ev="http://www.w3.org/2001/xml-events" xmlns:xlink="http://www.w3.org/1999/xlink"><defs><filter id="glow"><feGaussianBlur in="SourceGraphic" result="blur" stdDeviation="2" /><feMerge><feMergeNode in="blur" /><feMergeNode in="SourceGraphic" /></feMerge></filter></defs><rect fill="#0a0f14" height="370px" width="700px" x="0" y="0" /><text fill="#00d8ff" font-size="22px" font-weight="bold" x="20" y="40">MITRE ATT&amp;CK Coverage (Blue Team)</text><text fill="#a0e0ff" font-size="14px" x="20" y="82">Initial Access</text><rect fill="#1a2a3a" height="15" rx="3" ry="3" width="250" x="180" y="70" /><rect fill="#00d8ff" height="15" rx="3" ry="3" width="200.0" x="180" y="70"><animate attributeName="fill" dur="1.5s" repeatCount="indefinite" values="#00d8ff;#80f0ff;#00d8ff" /></rect><text fill="#a0e0ff" font-size="14px" x="20" y="112">Execution</text><rect fill="#1a2a3a" height="15" rx="3" ry="3" width="250" x="180" y="100" /><rect fill="#00d8ff" height="15" rx="3" ry="3" width="162.5" x="180" y="100"><animate attributeName="fill" dur="1.7s" repeatCount="indefinite" values="#00d8ff;#80f0ff;#00d8ff" /></rect><text fill="#a0e0ff" font-size="14px" x="20" y="142">Persistence</text><rect fill="#1a2a3a" height="15" rx="3" ry="3" width="250" x="180" y="130" /><rect fill="#00d8ff" height="15" rx="3" ry="3" width="225.0" x="180" y="130"><animate attributeName="fill" dur="1.9s" repeatCount="indefinite" values="#00d8ff;#80f0ff;#00d8ff" /></rect><text fill="#a0e0ff" font-size="14px" x="20" y="172">Privilege Escalation</text><rect fill="#1a2a3a" height="15" rx="3" ry="3" width="250" x="180" y="160" /><rect fill="#00d8ff" height="15" rx="3" ry="3" width="175.0" x="180" y="160"><animate attributeName="fill" dur="2.1s" repeatCount="indefinite" values="#00d8ff;#80f0ff;#00d8ff" /></rect><text fill="#a0e0ff" font-size="14px" x="20" y="202">Defense Evasion</text><rect fill="#1a2a3a" height="15" rx="3" ry="3" width="250" x="180" y="190" /><rect fill="#00d8ff" height="15" rx="3" ry="3" width="125.0" x="180" y="190"><animate attributeName="fill" dur="2.3s" repeatCount="indefinite" values="#00d8ff;#80f0ff;#00d8ff" /></rect><text fill="#a0e0ff" font-size="14px" x="20" y="232">Credential Access</text><rect fill="#1a2a3a" height="15" rx="3" ry="3" width="250" x="180" y="220" /><rect fill="#00d8ff" height="15" rx="3" ry="3" width="150.0" x="180" y="220"><animate attributeName="fill" dur="2.5s" repeatCount="indefinite" values="#00d8ff;#80f0ff;#00d8ff" /></rect><text fill="#a0e0ff" font-size="14px" x="20" y="262">Discovery</text><rect fill="#1a2a3a" height="15" rx="3" ry="3" width="250" x="180" y="250" /><rect fill="#00d8ff" height="15" rx="3" ry="3" width="100.0" x="180" y="250"><animate attributeName="fill" dur="2.7s" repeatCount="indefinite" values="#00d8ff;#80f0ff;#00d8ff" /></rect><text fill="#a0e0ff" font-size="14px" x="20" y="292">Lateral Movement</text><rect fill="#1a2a3a" height="15" rx="3" ry="3" width="250" x="180" y="280" /><rect fill="#00d8ff" height="15" rx="3" ry="3" width="137.5" x="180" y="280"><animate attributeName="fill" dur="2.9000000000000004s" repeatCount="indefinite" values="#00d8ff;#80f0ff;#00d8ff" /></rect><text fill="#a0e0ff" font-size="14px" x="20" y="322">Collection</text><rect fill="#1a2a3a" height="15" rx="3" ry="3" width="250" x="180" y="310" /><rect fill="#00d8ff" height="15" rx="3" ry="3" width="187.5" x="180" y="310"><animate attributeName="fill" dur="3.1s" repeatCount="indefinite" values="#00d8ff;#80f0ff;#00d8ff" /></rect></svg>