<?xml version="1.0" encoding="utf-8" ?>
<svg baseProfile="full" height="600px" version="1.1" width="1000px" xmlns="http://www.w3.org/2000/svg" xmlns:ev="http://www.w3.org/2001/xml-events" xmlns:xlink="http://www.w3.org/1999/xlink"><defs><filter id="glow"><feGaussianBlur in="SourceGraphic" result="blur" stdDeviation="2" /><feMerge><feMergeNode in="blur" /><feMergeNode in="SourceGraphic" /></feMerge></filter></defs><rect fill="#0a0f14" height="600px" width="1000px" x="0" y="0" /><text fill="#00d8ff" font-size="28px" font-weight="bold" x="40px" y="50px">Dany Arabo - Cybersecurity / Blue Team Analyst</text><text fill="#00d8ff" font-size="22px" x="40px" y="100">MITRE ATT&amp;CK Coverage:</text><text fill="#a0e0ff" font-size="18px" x="60" y="130">Initial Access</text><rect fill="#1a2a3a" height="20" rx="5" ry="5" width="200" x="260" y="115" /><rect fill="#00d8ff" height="20" rx="5" ry="5" width="160.0" x="260" y="115"><animate attributeName="fill" dur="1.5s" repeatCount="indefinite" values="#00d8ff;#80f0ff;#00d8ff" /></rect><text fill="#a0e0ff" font-size="18px" x="60" y="170">Execution</text><rect fill="#1a2a3a" height="20" rx="5" ry="5" width="200" x="260" y="155" /><rect fill="#00d8ff" height="20" rx="5" ry="5" width="130.0" x="260" y="155"><animate attributeName="fill" dur="1.7s" repeatCount="indefinite" values="#00d8ff;#80f0ff;#00d8ff" /></rect><text fill="#a0e0ff" font-size="18px" x="60" y="210">Persistence</text><rect fill="#1a2a3a" height="20" rx="5" ry="5" width="200" x="260" y="195" /><rect fill="#00d8ff" height="20" rx="5" ry="5" width="180.0" x="260" y="195"><animate attributeName="fill" dur="1.9s" repeatCount="indefinite" values="#00d8ff;#80f0ff;#00d8ff" /></rect><text fill="#a0e0ff" font-size="18px" x="60" y="250">Privilege Escalation</text><rect fill="#1a2a3a" height="20" rx="5" ry="5" width="200" x="260" y="235" /><rect fill="#00d8ff" height="20" rx="5" ry="5" width="140.0" x="260" y="235"><animate attributeName="fill" dur="2.1s" repeatCount="indefinite" values="#00d8ff;#80f0ff;#00d8ff" /></rect><text fill="#a0e0ff" font-size="18px" x="60" y="290">Defense Evasion</text><rect fill="#1a2a3a" height="20" rx="5" ry="5" width="200" x="260" y="275" /><rect fill="#00d8ff" height="20" rx="5" ry="5" width="100.0" x="260" y="275"><animate attributeName="fill" dur="2.3s" repeatCount="indefinite" values="#00d8ff;#80f0ff;#00d8ff" /></rect><text fill="#a0e0ff" font-size="18px" x="60" y="330">Credential Access</text><rect fill="#1a2a3a" height="20" rx="5" ry="5" width="200" x="260" y="315" /><rect fill="#00d8ff" height="20" rx="5" ry="5" width="120.0" x="260" y="315"><animate attributeName="fill" dur="2.5s" repeatCount="indefinite" values="#00d8ff;#80f0ff;#00d8ff" /></rect><text fill="#00d8ff" font-size="22px" x="40px" y="370">Core Blue Team Skills:</text><text fill="#a0e0ff" font-size="18px" x="60px" y="410">SIEM Monitoring &amp; Analysis<animate attributeName="fill" dur="1.5s" repeatCount="indefinite" values="#a0e0ff;#00d8ff;#a0e0ff" /></text><text fill="#a0e0ff" font-size="18px" x="60px" y="440">EDR / Endpoint Threat Hunting<animate attributeName="fill" dur="1.7s" repeatCount="indefinite" values="#a0e0ff;#00d8ff;#a0e0ff" /></text><text fill="#a0e0ff" font-size="18px" x="60px" y="470">Log Analysis &amp; Correlation<animate attributeName="fill" dur="1.9s" repeatCount="indefinite" values="#a0e0ff;#00d8ff;#a0e0ff" /></text><text fill="#a0e0ff" font-size="18px" x="60px" y="500">Incident Response<animate attributeName="fill" dur="2.1s" repeatCount="indefinite" values="#a0e0ff;#00d8ff;#a0e0ff" /></text><text fill="#a0e0ff" font-size="18px" x="60px" y="530">Cloud Security Monitoring<animate attributeName="fill" dur="2.3s" repeatCount="indefinite" values="#a0e0ff;#00d8ff;#a0e0ff" /></text><text fill="#00d8ff" font-size="22px" x="500px" y="370">Certifications / Achievements:</text><text fill="#a0e0ff" font-size="18px" x="520px" y="410">Certified SOC Analyst<animate attributeName="fill" dur="1.7s" repeatCount="indefinite" values="#a0e0ff;#00d8ff;#a0e0ff" /></text><text fill="#a0e0ff" font-size="18px" x="520px" y="440">CrowdStrike &amp; Splunk Experience<animate attributeName="fill" dur="1.9s" repeatCount="indefinite" values="#a0e0ff;#00d8ff;#a0e0ff" /></text><text fill="#a0e0ff" font-size="18px" x="520px" y="470">Penetration Testing Foundations<animate attributeName="fill" dur="2.1s" repeatCount="indefinite" values="#a0e0ff;#00d8ff;#a0e0ff" /></text></svg>