<?xml version="1.0" encoding="utf-8" ?>
<svg baseProfile="full" height="400px" version="1.1" width="700px" xmlns="http://www.w3.org/2000/svg" xmlns:ev="http://www.w3.org/2001/xml-events" xmlns:xlink="http://www.w3.org/1999/xlink"><defs><filter id="glow"><feGaussianBlur in="SourceGraphic" result="blur" stdDeviation="2" /><feMerge><feMergeNode in="blur" /><feMergeNode in="SourceGraphic" /></feMerge></filter></defs><rect fill="#0a0f14" height="400px" width="700px" x="0" y="0" /><text fill="#00d8ff" font-size="22px" font-weight="bold" x="20" y="40">Dany Arabo - Blue Team Analyst</text><text fill="#00d8ff" font-size="16px" x="20" y="70">MITRE ATT&amp;CK Coverage:</text><text fill="#a0e0ff" font-size="14px" x="20" y="102">Initial Access</text><rect fill="#1a2a3a" height="15" rx="3" ry="3" width="250" x="140" y="90" /><rect fill="#00d8ff" height="15" rx="3" ry="3" width="200.0" x="140" y="90"><animate attributeName="fill" dur="1.5s" repeatCount="indefinite" values="#00d8ff;#80f0ff;#00d8ff" /></rect><text fill="#a0e0ff" font-size="14px" x="20" y="132">Execution</text><rect fill="#1a2a3a" height="15" rx="3" ry="3" width="250" x="140" y="120" /><rect fill="#00d8ff" height="15" rx="3" ry="3" width="162.5" x="140" y="120"><animate attributeName="fill" dur="1.7s" repeatCount="indefinite" values="#00d8ff;#80f0ff;#00d8ff" /></rect><text fill="#a0e0ff" font-size="14px" x="20" y="162">Persistence</text><rect fill="#1a2a3a" height="15" rx="3" ry="3" width="250" x="140" y="150" /><rect fill="#00d8ff" height="15" rx="3" ry="3" width="225.0" x="140" y="150"><animate attributeName="fill" dur="1.9s" repeatCount="indefinite" values="#00d8ff;#80f0ff;#00d8ff" /></rect><text fill="#a0e0ff" font-size="14px" x="20" y="192">Privilege Escalation</text><rect fill="#1a2a3a" height="15" rx="3" ry="3" width="250" x="140" y="180" /><rect fill="#00d8ff" height="15" rx="3" ry="3" width="175.0" x="140" y="180"><animate attributeName="fill" dur="2.1s" repeatCount="indefinite" values="#00d8ff;#80f0ff;#00d8ff" /></rect><text fill="#a0e0ff" font-size="14px" x="20" y="222">Defense Evasion</text><rect fill="#1a2a3a" height="15" rx="3" ry="3" width="250" x="140" y="210" /><rect fill="#00d8ff" height="15" rx="3" ry="3" width="125.0" x="140" y="210"><animate attributeName="fill" dur="2.3s" repeatCount="indefinite" values="#00d8ff;#80f0ff;#00d8ff" /></rect><text fill="#00d8ff" font-size="16px" x="400" y="70">Skills:</text><text fill="#a0e0ff" font-size="14px" x="420" y="90">SIEM Monitoring<animate attributeName="fill" dur="1.6s" repeatCount="indefinite" values="#a0e0ff;#00d8ff;#a0e0ff" /></text><text fill="#a0e0ff" font-size="14px" x="420" y="110">EDR / Threat Hunting<animate attributeName="fill" dur="1.8s" repeatCount="indefinite" values="#a0e0ff;#00d8ff;#a0e0ff" /></text><text fill="#a0e0ff" font-size="14px" x="420" y="130">Log Analysis<animate attributeName="fill" dur="2.0s" repeatCount="indefinite" values="#a0e0ff;#00d8ff;#a0e0ff" /></text><text fill="#a0e0ff" font-size="14px" x="420" y="150">Incident Response<animate attributeName="fill" dur="2.2s" repeatCount="indefinite" values="#a0e0ff;#00d8ff;#a0e0ff" /></text><text fill="#00d8ff" font-size="16px" x="400" y="170">Certifications:</text><text fill="#a0e0ff" font-size="14px" x="420" y="190">Certified SOC Analyst<animate attributeName="fill" dur="1.7s" repeatCount="indefinite" values="#a0e0ff;#00d8ff;#a0e0ff" /></text><text fill="#a0e0ff" font-size="14px" x="420" y="210">CrowdStrike &amp; Splunk<animate attributeName="fill" dur="1.9s" repeatCount="indefinite" values="#a0e0ff;#00d8ff;#a0e0ff" /></text><text fill="#a0e0ff" font-size="14px" x="420" y="230">Pen Testing Foundations<animate attributeName="fill" dur="2.1s" repeatCount="indefinite" values="#a0e0ff;#00d8ff;#a0e0ff" /></text></svg>