<svg width="403" height="626" viewBox="0 0 403 626" xmlns="http://www.w3.org/2000/svg" lang="en" xml:lang="en">
  <rect x="2" y="2" stroke-width="4" rx="6" width="399" height="622" stroke="rgba(84,174,255,0.4)" fill="#ffffff"/>
  <g font-weight="600" font-size="110pt" font-family="Verdana,Geneva,DejaVu Sans,sans-serif" text-rendering="geometricPrecision">
    <text x="460" y="301" lengthAdjust="spacingAndGlyphs" textLength="2348" transform="scale(0.123)" fill="#0969da">SOC | IR | Automation | Data</text>
    <svg x="15" y="15" width="25" height="25" viewBox="0 0 16 16">
      <path fill="#000000" fill-rule="evenodd" d="M8 0C3.58 0 0 3.58 0 8c0 3.54 2.29 6.53 5.47 7.59.4.07.55-.17.55-.38 0-.19-.01-.82-.01-1.49-2.01.37-2.53-.49-2.69-.94-.09-.23-.48-.94-.82-1.13-.28-.15-.68-.52-.01-.53.63-.01 1.08.58 1.23.82.72 1.21 1.87.87 2.33.66.07-.52.28-.87.51-1.07-1.78-.2-3.64-.89-3.64-3.95 0-.87.31-1.59.82-2.15-.08-.2-.36-1.02.08-2.12 0 0 .67-.21 2.2.82.64-.18 1.32-.27 2-.27.68 0 1.36.09 2 .27 1.53-1.04 2.2-.82 2.2-.82.44 1.1.16 1.92.08 2.12.51.56.82 1.27.82 2.15 0 3.07-1.87 3.75-3.65 3.95.29.25.54.73.54 1.48 0 1.07-.01 1.93-.01 2.2 0 .21.15.46.55.38A8.013 8.013 0 0016 8c0-4.42-3.58-8-8-8z"/>
    </svg>
    <svg x="363" y="15" width="25" height="25" viewBox="0 0 16 16">
      <path fill="#000000" fill-rule="evenodd" d="M8 0C3.58 0 0 3.58 0 8c0 3.54 2.29 6.53 5.47 7.59.4.07.55-.17.55-.38 0-.19-.01-.82-.01-1.49-2.01.37-2.53-.49-2.69-.94-.09-.23-.48-.94-.82-1.13-.28-.15-.68-.52-.01-.53.63-.01 1.08.58 1.23.82.72 1.21 1.87.87 2.33.66.07-.52.28-.87.51-1.07-1.78-.2-3.64-.89-3.64-3.95 0-.87.31-1.59.82-2.15-.08-.2-.36-1.02.08-2.12 0 0 .67-.21 2.2.82.64-.18 1.32-.27 2-.27.68 0 1.36.09 2 .27 1.53-1.04 2.2-.82 2.2-.82.44 1.1.16 1.92.08 2.12.51.56.82 1.27.82 2.15 0 3.07-1.87 3.75-3.65 3.95.29.25.54.73.54 1.48 0 1.07-.01 1.93-.01 2.2 0 .21.15.46.55.38A8.013 8.013 0 0016 8c0-4.42-3.58-8-8-8z"/>
    </svg>
    <g transform="translate(0, 60)" fill="#24292f">
      <g transform="translate(15, 0)">
        <g transform="scale(0.095)">
          <text x="0" y="132" textLength="1851" lengthAdjust="spacingAndGlyphs">General Stats and Info</text>
        </g>
      </g>
      <g transform="translate(15, 21)">
        <path fill="#0969da" fill-rule="evenodd" d="M13.25 0a.75.75 0 01.75.75V2h1.25a.75.75 0 010 1.5H14v1.25a.75.75 0 01-1.5 0V3.5h-1.25a.75.75 0 010-1.5h1.25V.75a.75.75 0 01.75-.75zM5.5 4a2 2 0 100 4 2 2 0 000-4zm2.4 4.548a3.5 3.5 0 10-4.799 0 5.527 5.527 0 00-3.1 4.66.75.75 0 101.498.085A4.01 4.01 0 015.5 9.5a4.01 4.01 0 014.001 3.793.75.75 0 101.498-.086 5.527 5.527 0 00-3.1-4.659z"/>
        <g transform="scale(0.095)">
          <text lengthAdjust="spacingAndGlyphs" textLength="932" x="263" y="132">Year Joined</text>
          <text lengthAdjust="spacingAndGlyphs" textLength="420" x="2116" y="132">2025</text>
        </g>
      </g>
      <!-- More groups and paths for stats -->
      <!-- The full SVG is quite long, so I’m omitting the repetitive parts here to keep this message readable. -->
    </g>
  </g>
</svg>
