<?xml version="1.0" encoding="UTF-8"?>
<svg xmlns="http://www.w3.org/2000/svg"
     width="400"
     height="400"
     viewBox="0 0 400 400"
     role="img"
     aria-label="Blue Team Capability Radar">

<rect width="100%" height="100%" fill="#0d1117"/>

<circle cx="200" cy="200" r="120" fill="none" stroke="#30363d"/>
<circle cx="200" cy="200" r="80" fill="none" stroke="#30363d"/>
<circle cx="200" cy="200" r="40" fill="none" stroke="#30363d"/>

<g stroke="#30363d">
<line x1="200" y1="200" x2="200.0" y2="80.0" />
<line x1="200" y1="200" x2="284.8528137423857" y2="115.14718625761431" />
<line x1="200" y1="200" x2="320.0" y2="200.0" />
<line x1="200" y1="200" x2="284.8528137423857" y2="284.8528137423857" />
<line x1="200" y1="200" x2="200.0" y2="320.0" />
<line x1="200" y1="200" x2="115.14718625761431" y2="284.8528137423857" />
<line x1="200" y1="200" x2="80.0" y2="200.00000000000003" />
<line x1="200" y1="200" x2="115.14718625761428" y2="115.14718625761431" />
</g>

<path d="M 200.00,80.00
         A 120,120 0 0 1 277.93,108.75"
      stroke="rgba(88,166,255,0.85)"
      stroke-width="10"
      fill="none"
      stroke-linecap="round">
  <animate attributeName="stroke-opacity"
           values="0.6;1;0.6"
           dur="6s"
           repeatCount="indefinite"/>
</path>

<path d="M 284.85,115.15
         A 120,120 0 0 1 319.47,188.71"
      stroke="rgba(88,166,255,0.85)"
      stroke-width="10"
      fill="none"
      stroke-linecap="round">
  <animate attributeName="stroke-opacity"
           values="0.6;1;0.6"
           dur="6s"
           repeatCount="indefinite"/>
</path>

<path d="M 320.00,200.00
         A 120,120 0 0 1 294.24,274.29"
      stroke="rgba(88,166,255,0.85)"
      stroke-width="10"
      fill="none"
      stroke-linecap="round">
  <animate attributeName="stroke-opacity"
           values="0.6;1;0.6"
           dur="6s"
           repeatCount="indefinite"/>
</path>

<path d="M 284.85,284.85
         A 120,120 0 0 1 218.77,318.52"
      stroke="rgba(88,166,255,0.85)"
      stroke-width="10"
      fill="none"
      stroke-linecap="round">
  <animate attributeName="stroke-opacity"
           values="0.6;1;0.6"
           dur="6s"
           repeatCount="indefinite"/>
</path>

<path d="M 200.00,320.00
         A 120,120 0 0 1 133.33,299.78"
      stroke="rgba(88,166,255,0.85)"
      stroke-width="10"
      fill="none"
      stroke-linecap="round">
  <animate attributeName="stroke-opacity"
           values="0.6;1;0.6"
           dur="6s"
           repeatCount="indefinite"/>
</path>

<path d="M 115.15,284.85
         A 120,120 0 0 1 81.48,218.77"
      stroke="rgba(88,166,255,0.85)"
      stroke-width="10"
      fill="none"
      stroke-linecap="round">
  <animate attributeName="stroke-opacity"
           values="0.6;1;0.6"
           dur="6s"
           repeatCount="indefinite"/>
</path>

<path d="M 80.00,200.00
         A 120,120 0 0 1 101.82,131.00"
      stroke="rgba(88,166,255,0.85)"
      stroke-width="10"
      fill="none"
      stroke-linecap="round">
  <animate attributeName="stroke-opacity"
           values="0.6;1;0.6"
           dur="6s"
           repeatCount="indefinite"/>
</path>

<path d="M 115.15,115.15
         A 120,120 0 0 1 183.09,81.20"
      stroke="rgba(88,166,255,0.85)"
      stroke-width="10"
      fill="none"
      stroke-linecap="round">
  <animate attributeName="stroke-opacity"
           values="0.6;1;0.6"
           dur="6s"
           repeatCount="indefinite"/>
</path>

<text x="200.0" y="50.0"
      fill="#c9d1d9"
      font-size="11"
      text-anchor="middle">
  SOC Operations
</text>

<text x="306.06601717798213" y="93.93398282201788"
      fill="#c9d1d9"
      font-size="11"
      text-anchor="middle">
  Incident Response
</text>

<text x="350.0" y="200.0"
      fill="#c9d1d9"
      font-size="11"
      text-anchor="middle">
  SIEM Engineering
</text>

<text x="306.06601717798213" y="306.06601717798213"
      fill="#c9d1d9"
      font-size="11"
      text-anchor="middle">
  Endpoint Detection &amp; Telemetry
</text>

<text x="200.0" y="350.0"
      fill="#c9d1d9"
      font-size="11"
      text-anchor="middle">
  OSINT &amp; Log Analysis
</text>

<text x="93.93398282201788" y="306.06601717798213"
      fill="#c9d1d9"
      font-size="11"
      text-anchor="middle">
  SOAR &amp; Automation
</text>

<text x="50.0" y="200.00000000000003"
      fill="#c9d1d9"
      font-size="11"
      text-anchor="middle">
  Anomaly Detection &amp; Metrics
</text>

<text x="93.93398282201785" y="93.93398282201788"
      fill="#c9d1d9"
      font-size="11"
      text-anchor="middle">
  Risk Identification &amp; Mitigation
</text>
</svg>