<?xml version="1.0" encoding="UTF-8"?>
<svg xmlns="http://www.w3.org/2000/svg"
     width="400"
     height="400"
     viewBox="0 0 400 400"
     role="img"
     aria-label="Blue Team Capability Radar">

<rect width="100%" height="100%" fill="#0d1117"/>

<circle cx="200" cy="200" r="120" fill="none" stroke="#30363d"/>
<circle cx="200" cy="200" r="80" fill="none" stroke="#30363d"/>
<circle cx="200" cy="200" r="40" fill="none" stroke="#30363d"/>

<g stroke="#30363d">
<line x1="200" y1="200" x2="200.0" y2="80.0" />
<line x1="200" y1="200" x2="284.8528137423857" y2="115.14718625761431" />
<line x1="200" y1="200" x2="320.0" y2="200.0" />
<line x1="200" y1="200" x2="284.8528137423857" y2="284.8528137423857" />
<line x1="200" y1="200" x2="200.0" y2="320.0" />
<line x1="200" y1="200" x2="115.14718625761431" y2="284.8528137423857" />
<line x1="200" y1="200" x2="80.0" y2="200.00000000000003" />
<line x1="200" y1="200" x2="115.14718625761428" y2="115.14718625761431" />
</g>

<polygon points="200.0,92.0 274.6704760932994,125.32952390670059 302.0,200.0 267.88225099390854,267.88225099390854 200.0,290.0 132.11774900609146,267.88225099390854 98.0,200.0 130.42069273124372,130.42069273124372"
         fill="rgba(88,166,255,0.35)"
         stroke="#58a6ff"
         stroke-width="2">
  <animateTransform
      attributeName="transform"
      type="rotate"
      from="0 200 200"
      to="360 200 200"
      dur="40s"
      repeatCount="indefinite"/>
</polygon>

<text x="200.0" y="50.0"
      fill="#c9d1d9"
      font-size="11"
      text-anchor="middle">
  SOC Operations
</text>

<text x="306.06601717798213" y="93.93398282201788"
      fill="#c9d1d9"
      font-size="11"
      text-anchor="middle">
  Incident Response
</text>

<text x="350.0" y="200.0"
      fill="#c9d1d9"
      font-size="11"
      text-anchor="middle">
  SIEM Engineering
</text>

<text x="306.06601717798213" y="306.06601717798213"
      fill="#c9d1d9"
      font-size="11"
      text-anchor="middle">
  Endpoint Detection &amp; Telemetry
</text>

<text x="200.0" y="350.0"
      fill="#c9d1d9"
      font-size="11"
      text-anchor="middle">
  OSINT &amp; Log Analysis
</text>

<text x="93.93398282201788" y="306.06601717798213"
      fill="#c9d1d9"
      font-size="11"
      text-anchor="middle">
  SOAR &amp; Automation
</text>

<text x="50.0" y="200.00000000000003"
      fill="#c9d1d9"
      font-size="11"
      text-anchor="middle">
  Anomaly Detection &amp; Metrics
</text>

<text x="93.93398282201785" y="93.93398282201788"
      fill="#c9d1d9"
      font-size="11"
      text-anchor="middle">
  Risk Identification &amp; Mitigation
</text>
</svg>
