<svg xmlns="http://www.w3.org/2000/svg" width="480" height="480" viewBox="0 0 480 480">
  <rect width="480" height="480" fill="#0a0f1a"/>
<circle cx="240" cy="240" r="40" fill="none" stroke="#2f6fed" stroke-width="1" opacity="0.3"/>
<circle cx="240" cy="240" r="80" fill="none" stroke="#2f6fed" stroke-width="1" opacity="0.3"/>
<circle cx="240" cy="240" r="120" fill="none" stroke="#2f6fed" stroke-width="1" opacity="0.3"/>
<circle cx="240" cy="240" r="160" fill="none" stroke="#2f6fed" stroke-width="1" opacity="0.3"/>
<circle cx="240" cy="240" r="200" fill="none" stroke="#2f6fed" stroke-width="1" opacity="0.3"/>
<line x1="240" y1="240" x2="440.0" y2="240.0" stroke="#2f6fed" stroke-width="1" opacity="0.2"/>
<line x1="240" y1="240" x2="381.4213562373095" y2="381.4213562373095" stroke="#2f6fed" stroke-width="1" opacity="0.2"/>
<line x1="240" y1="240" x2="240.0" y2="440.0" stroke="#2f6fed" stroke-width="1" opacity="0.2"/>
<line x1="240" y1="240" x2="98.57864376269052" y2="381.4213562373095" stroke="#2f6fed" stroke-width="1" opacity="0.2"/>
<line x1="240" y1="240" x2="40.0" y2="240.00000000000003" stroke="#2f6fed" stroke-width="1" opacity="0.2"/>
<line x1="240" y1="240" x2="98.57864376269046" y2="98.57864376269052" stroke="#2f6fed" stroke-width="1" opacity="0.2"/>
<line x1="240" y1="240" x2="239.99999999999997" y2="40.0" stroke="#2f6fed" stroke-width="1" opacity="0.2"/>
<line x1="240" y1="240" x2="381.4213562373095" y2="98.57864376269046" stroke="#2f6fed" stroke-width="1" opacity="0.2"/>
<circle cx="413.86664873203233" cy="286.5874281184537" r="6" fill="#5cb3ff"/>
<text x="421.86664873203233" y="290.5874281184537" font-family="Consolas, monospace" font-size="12" fill="#a0c8ff">HostA</text>
<circle cx="273.6464758633277" cy="365.57035741757886" r="6" fill="#5cb3ff"/>
<text x="281.6464758633277" y="369.57035741757886" font-family="Consolas, monospace" font-size="12" fill="#a0c8ff">Server42</text>
<circle cx="137.1539824501537" cy="362.5671108990365" r="6" fill="#5cb3ff"/>
<text x="145.1539824501537" y="366.5671108990365" font-family="Consolas, monospace" font-size="12" fill="#a0c8ff">Workstation12</text>
<circle cx="61.45840205067739" cy="175.01617276812294" r="6" fill="#5cb3ff"/>
<text x="69.45840205067739" y="179.01617276812294" font-family="Consolas, monospace" font-size="12" fill="#a0c8ff">Router1</text>
<circle cx="226.92663858785127" cy="90.57079528623817" r="6" fill="#5cb3ff"/>
<text x="234.92663858785127" y="94.57079528623817" font-family="Consolas, monospace" font-size="12" fill="#a0c8ff">DBServer</text>
</svg>