<svg xmlns="http://www.w3.org/2000/svg" width="600" height="400" viewBox="0 0 600 400">
  <rect width="600" height="400" fill="#0a0f1a"/>
  <defs>
    <filter id="glow" x="-50%" y="-50%" width="200%" height="200%">
      <feDropShadow dx="0" dy="0" stdDeviation="3" flood-color="#4effff" flood-opacity="0.8"/>
    </filter>
    <linearGradient id="lineGrad" x1="0" y1="0" x2="0" y2="1">
      <stop offset="0%" stop-color="#2f6fed"/>
      <stop offset="100%" stop-color="#5cb3ff"/>
    </linearGradient>
  </defs>
<line x1="0" y1="50" x2="600" y2="50" stroke="#1e2a45" stroke-width="1"/>
<line x1="0" y1="80" x2="600" y2="80" stroke="#1e2a45" stroke-width="1"/>
<line x1="0" y1="110" x2="600" y2="110" stroke="#1e2a45" stroke-width="1"/>
<line x1="0" y1="140" x2="600" y2="140" stroke="#1e2a45" stroke-width="1"/>
<line x1="0" y1="170" x2="600" y2="170" stroke="#1e2a45" stroke-width="1"/>
<line x1="0" y1="200" x2="600" y2="200" stroke="#1e2a45" stroke-width="1"/>
<line x1="0" y1="230" x2="600" y2="230" stroke="#1e2a45" stroke-width="1"/>
<line x1="0" y1="260" x2="600" y2="260" stroke="#1e2a45" stroke-width="1"/>
<line x1="0" y1="290" x2="600" y2="290" stroke="#1e2a45" stroke-width="1"/>
<line x1="0" y1="320" x2="600" y2="320" stroke="#1e2a45" stroke-width="1"/>
<path d="M0,45 L50,48 L100,43 L150,53 L200,52 L250,60 L300,59 L350,58 L400,40 L450,47 L500,47 L550,42 L600,60" fill="none" stroke="url(#lineGrad)" stroke-width="3" filter="url(#glow)">
  <animate attributeName="d" values="M0,45 L50,48 L100,43 L150,53 L200,52 L250,60 L300,59 L350,58 L400,40 L450,47 L500,47 L550,42 L600,60; M0,43 L50,50 L100,54 L150,58 L200,40 L250,42 L300,41 L350,58 L400,57 L450,51 L500,55 L550,48 L600,53" dur="5.74s" repeatCount="indefinite"/>
</path>
<text x="10" y="45" font-family="Consolas, monospace" font-size="12" fill="#a0c8ff">Initial Access</text>
<path d="M0,76 L50,71 L100,75 L150,73 L200,89 L250,77 L300,88 L350,71 L400,71 L450,78 L500,80 L550,89 L600,86" fill="none" stroke="url(#lineGrad)" stroke-width="3" filter="url(#glow)">
  <animate attributeName="d" values="M0,76 L50,71 L100,75 L150,73 L200,89 L250,77 L300,88 L350,71 L400,71 L450,78 L500,80 L550,89 L600,86; M0,71 L50,85 L100,90 L150,88 L200,81 L250,77 L300,71 L350,72 L400,70 L450,77 L500,76 L550,73 L600,74" dur="6.42s" repeatCount="indefinite"/>
</path>
<text x="10" y="75" font-family="Consolas, monospace" font-size="12" fill="#a0c8ff">Execution</text>
<path d="M0,106 L50,112 L100,104 L150,101 L200,116 L250,102 L300,111 L350,103 L400,103 L450,106 L500,102 L550,101 L600,104" fill="none" stroke="url(#lineGrad)" stroke-width="3" filter="url(#glow)">
  <animate attributeName="d" values="M0,106 L50,112 L100,104 L150,101 L200,116 L250,102 L300,111 L350,103 L400,103 L450,106 L500,102 L550,101 L600,104; M0,116 L50,118 L100,118 L150,108 L200,100 L250,108 L300,110 L350,106 L400,119 L450,100 L500,104 L550,119 L600,116" dur="5.23s" repeatCount="indefinite"/>
</path>
<text x="10" y="105" font-family="Consolas, monospace" font-size="12" fill="#a0c8ff">Persistence</text>
<path d="M0,141 L50,130 L100,145 L150,139 L200,150 L250,132 L300,139 L350,147 L400,136 L450,138 L500,140 L550,145 L600,149" fill="none" stroke="url(#lineGrad)" stroke-width="3" filter="url(#glow)">
  <animate attributeName="d" values="M0,141 L50,130 L100,145 L150,139 L200,150 L250,132 L300,139 L350,147 L400,136 L450,138 L500,140 L550,145 L600,149; M0,143 L50,133 L100,150 L150,132 L200,133 L250,134 L300,150 L350,149 L400,134 L450,149 L500,133 L550,134 L600,137" dur="5.11s" repeatCount="indefinite"/>
</path>
<text x="10" y="135" font-family="Consolas, monospace" font-size="12" fill="#a0c8ff">Privilege Escalation</text>
<path d="M0,171 L50,173 L100,165 L150,167 L200,168 L250,178 L300,163 L350,166 L400,180 L450,169 L500,177 L550,171 L600,160" fill="none" stroke="url(#lineGrad)" stroke-width="3" filter="url(#glow)">
  <animate attributeName="d" values="M0,171 L50,173 L100,165 L150,167 L200,168 L250,178 L300,163 L350,166 L400,180 L450,169 L500,177 L550,171 L600,160; M0,169 L50,172 L100,179 L150,180 L200,173 L250,177 L300,175 L350,177 L400,175 L450,168 L500,169 L550,163 L600,173" dur="4.40s" repeatCount="indefinite"/>
</path>
<text x="10" y="165" font-family="Consolas, monospace" font-size="12" fill="#a0c8ff">Defense Evasion</text>
<path d="M0,209 L50,202 L100,208 L150,193 L200,197 L250,190 L300,201 L350,208 L400,201 L450,193 L500,201 L550,209 L600,202" fill="none" stroke="url(#lineGrad)" stroke-width="3" filter="url(#glow)">
  <animate attributeName="d" values="M0,209 L50,202 L100,208 L150,193 L200,197 L250,190 L300,201 L350,208 L400,201 L450,193 L500,201 L550,209 L600,202; M0,204 L50,203 L100,206 L150,208 L200,190 L250,206 L300,200 L350,197 L400,207 L450,209 L500,196 L550,200 L600,196" dur="4.89s" repeatCount="indefinite"/>
</path>
<text x="10" y="195" font-family="Consolas, monospace" font-size="12" fill="#a0c8ff">Credential Access</text>
<path d="M0,228 L50,231 L100,222 L150,238 L200,236 L250,236 L300,239 L350,221 L400,225 L450,239 L500,238 L550,227 L600,230" fill="none" stroke="url(#lineGrad)" stroke-width="3" filter="url(#glow)">
  <animate attributeName="d" values="M0,228 L50,231 L100,222 L150,238 L200,236 L250,236 L300,239 L350,221 L400,225 L450,239 L500,238 L550,227 L600,230; M0,236 L50,224 L100,228 L150,225 L200,230 L250,225 L300,234 L350,233 L400,228 L450,220 L500,233 L550,232 L600,225" dur="5.35s" repeatCount="indefinite"/>
</path>
<text x="10" y="225" font-family="Consolas, monospace" font-size="12" fill="#a0c8ff">Discovery</text>
<path d="M0,252 L50,269 L100,267 L150,259 L200,261 L250,258 L300,269 L350,255 L400,259 L450,258 L500,254 L550,264 L600,265" fill="none" stroke="url(#lineGrad)" stroke-width="3" filter="url(#glow)">
  <animate attributeName="d" values="M0,252 L50,269 L100,267 L150,259 L200,261 L250,258 L300,269 L350,255 L400,259 L450,258 L500,254 L550,264 L600,265; M0,264 L50,262 L100,262 L150,268 L200,261 L250,254 L300,253 L350,250 L400,268 L450,267 L500,261 L550,261 L600,263" dur="4.75s" repeatCount="indefinite"/>
</path>
<text x="10" y="255" font-family="Consolas, monospace" font-size="12" fill="#a0c8ff">Lateral Movement</text>
<path d="M0,289 L50,290 L100,283 L150,283 L200,298 L250,291 L300,285 L350,294 L400,286 L450,297 L500,285 L550,296 L600,290" fill="none" stroke="url(#lineGrad)" stroke-width="3" filter="url(#glow)">
  <animate attributeName="d" values="M0,289 L50,290 L100,283 L150,283 L200,298 L250,291 L300,285 L350,294 L400,286 L450,297 L500,285 L550,296 L600,290; M0,280 L50,282 L100,300 L150,281 L200,299 L250,298 L300,290 L350,292 L400,280 L450,298 L500,283 L550,287 L600,282" dur="5.32s" repeatCount="indefinite"/>
</path>
<text x="10" y="285" font-family="Consolas, monospace" font-size="12" fill="#a0c8ff">Exfiltration</text>
<path d="M0,312 L50,318 L100,322 L150,316 L200,321 L250,326 L300,316 L350,325 L400,310 L450,329 L500,310 L550,320 L600,313" fill="none" stroke="url(#lineGrad)" stroke-width="3" filter="url(#glow)">
  <animate attributeName="d" values="M0,312 L50,318 L100,322 L150,316 L200,321 L250,326 L300,316 L350,325 L400,310 L450,329 L500,310 L550,320 L600,313; M0,326 L50,316 L100,330 L150,328 L200,318 L250,323 L300,324 L350,312 L400,322 L450,328 L500,316 L550,318 L600,327" dur="5.57s" repeatCount="indefinite"/>
</path>
<text x="10" y="315" font-family="Consolas, monospace" font-size="12" fill="#a0c8ff">Impact</text>
<circle cx="550" cy="200" r="20" fill="none" stroke="#5cb3ff" stroke-width="2">
  <animate attributeName="r" values="18;22;18" dur="3s" repeatCount="indefinite"/>
</circle>
<text x="10" y="390" font-family="Consolas, monospace" font-size="10" fill="#888">2025-12-29T01:03:36.224974 UTC</text>
</svg>