<svg xmlns="http://www.w3.org/2000/svg" width="480" height="480" viewBox="0 0 480 480">
  <rect width="480" height="480" fill="#0a0f1a"/>
<circle cx="240" cy="240" r="40" fill="none" stroke="#2f6fed" stroke-width="1" opacity="0.3"/>
<circle cx="240" cy="240" r="80" fill="none" stroke="#2f6fed" stroke-width="1" opacity="0.3"/>
<circle cx="240" cy="240" r="120" fill="none" stroke="#2f6fed" stroke-width="1" opacity="0.3"/>
<circle cx="240" cy="240" r="160" fill="none" stroke="#2f6fed" stroke-width="1" opacity="0.3"/>
<circle cx="240" cy="240" r="200" fill="none" stroke="#2f6fed" stroke-width="1" opacity="0.3"/>
<line x1="240" y1="240" x2="440.0" y2="240.0" stroke="#2f6fed" stroke-width="1" opacity="0.2"/>
<line x1="240" y1="240" x2="381.4213562373095" y2="381.4213562373095" stroke="#2f6fed" stroke-width="1" opacity="0.2"/>
<line x1="240" y1="240" x2="240.0" y2="440.0" stroke="#2f6fed" stroke-width="1" opacity="0.2"/>
<line x1="240" y1="240" x2="98.57864376269052" y2="381.4213562373095" stroke="#2f6fed" stroke-width="1" opacity="0.2"/>
<line x1="240" y1="240" x2="40.0" y2="240.00000000000003" stroke="#2f6fed" stroke-width="1" opacity="0.2"/>
<line x1="240" y1="240" x2="98.57864376269046" y2="98.57864376269052" stroke="#2f6fed" stroke-width="1" opacity="0.2"/>
<line x1="240" y1="240" x2="239.99999999999997" y2="40.0" stroke="#2f6fed" stroke-width="1" opacity="0.2"/>
<line x1="240" y1="240" x2="381.4213562373095" y2="98.57864376269046" stroke="#2f6fed" stroke-width="1" opacity="0.2"/>
<circle cx="286.113968679372" cy="273.503759380671" r="5" fill="#5cb3ff"/>
<text x="296.113968679372" y="277.503759380671" font-family="Consolas, monospace" font-size="12" fill="#a0c8ff">HostA</text>
<circle cx="401.98088785760257" cy="214.3447477334021" r="8" fill="#5cb3ff"/>
<text x="411.98088785760257" y="218.3447477334021" font-family="Consolas, monospace" font-size="12" fill="#a0c8ff">Server42</text>
<circle cx="302.1248844758828" cy="106.77275530561246" r="6" fill="#2fffd3"/>
<text x="312.1248844758828" y="110.77275530561246" font-family="Consolas, monospace" font-size="12" fill="#a0c8ff">Workstation12</text>
<circle cx="379.80530789538756" cy="285.42549817311726" r="5" fill="#5cb3ff"/>
<text x="389.80530789538756" y="289.42549817311726" font-family="Consolas, monospace" font-size="12" fill="#a0c8ff">Router1</text>
<circle cx="237.31232940865834" cy="393.9765450540842" r="8" fill="#5cb3ff"/>
<text x="247.31232940865834" y="397.9765450540842" font-family="Consolas, monospace" font-size="12" fill="#a0c8ff">DBServer</text>
<circle cx="213.85916763341336" cy="374.48292413232997" r="6" fill="#5cb3ff"/>
<text x="223.85916763341336" y="378.48292413232997" font-family="Consolas, monospace" font-size="12" fill="#a0c8ff">Firewall</text>
<circle cx="134.26121344678492" cy="209.67989086013012" r="6" fill="#5cb3ff"/>
<text x="144.26121344678492" y="213.67989086013012" font-family="Consolas, monospace" font-size="12" fill="#a0c8ff">SensorX</text>
<circle cx="328.87802859315707" cy="235.34209989437795" r="5" fill="#2fffd3"/>
<text x="338.87802859315707" y="239.34209989437795" font-family="Consolas, monospace" font-size="12" fill="#a0c8ff">Node9</text>
<circle cx="368.2290836404002" cy="136.16213547677677" r="7" fill="#5cb3ff"/>
<text x="378.2290836404002" y="140.16213547677677" font-family="Consolas, monospace" font-size="12" fill="#a0c8ff">Proxy</text>
</svg>