<svg xmlns="http://www.w3.org/2000/svg" width="480" height="480" viewBox="0 0 480 480">
  <!-- Background -->
  <rect width="480" height="480" fill="#0a0f1a"/>
  
  <!-- Radar rings -->
  <circle cx="240" cy="240" r="40" fill="none" stroke="#2f6fed" stroke-width="1" opacity="0.3"/>
  <circle cx="240" cy="240" r="80" fill="none" stroke="#2f6fed" stroke-width="1" opacity="0.3"/>
  <circle cx="240" cy="240" r="120" fill="none" stroke="#2f6fed" stroke-width="1" opacity="0.3"/>
  <circle cx="240" cy="240" r="160" fill="none" stroke="#2f6fed" stroke-width="1" opacity="0.3"/>
  <circle cx="240" cy="240" r="200" fill="none" stroke="#2f6fed" stroke-width="1" opacity="0.3"/>
  <line x1="240" y1="240" x2="440.0" y2="240.0" stroke="#2f6fed" stroke-width="1" opacity="0.15"/>
  <line x1="240" y1="240" x2="413.20508075688775" y2="340.0" stroke="#2f6fed" stroke-width="1" opacity="0.15"/>
  <line x1="240" y1="240" x2="340.0" y2="413.2050807568877" stroke="#2f6fed" stroke-width="1" opacity="0.15"/>
  <line x1="240" y1="240" x2="240.0" y2="440.0" stroke="#2f6fed" stroke-width="1" opacity="0.15"/>
  <line x1="240" y1="240" x2="140.00000000000006" y2="413.20508075688775" stroke="#2f6fed" stroke-width="1" opacity="0.15"/>
  <line x1="240" y1="240" x2="66.79491924311225" y2="340.0" stroke="#2f6fed" stroke-width="1" opacity="0.15"/>
  <line x1="240" y1="240" x2="40.0" y2="240.00000000000003" stroke="#2f6fed" stroke-width="1" opacity="0.15"/>
  <line x1="240" y1="240" x2="66.79491924311228" y2="139.99999999999997" stroke="#2f6fed" stroke-width="1" opacity="0.15"/>
  <line x1="240" y1="240" x2="139.99999999999991" y2="66.79491924311233" stroke="#2f6fed" stroke-width="1" opacity="0.15"/>
  <line x1="240" y1="240" x2="239.99999999999997" y2="40.0" stroke="#2f6fed" stroke-width="1" opacity="0.15"/>
  <line x1="240" y1="240" x2="340.0" y2="66.79491924311228" stroke="#2f6fed" stroke-width="1" opacity="0.15"/>
  <line x1="240" y1="240" x2="413.2050807568877" y2="139.99999999999991" stroke="#2f6fed" stroke-width="1" opacity="0.15"/>
  <text x="240" y="28" font-family="Consolas, monospace" font-weight="800" font-size="22" fill="#5cb3ff" text-anchor="middle" letter-spacing="1">CYBER RADAR</text>
  <text x="240" y="50" font-family="Consolas, monospace" font-weight="500" font-size="14" fill="#a0c8ff" text-anchor="middle">Active Hosts & Alerts</text>
  <circle cx="413.86664873203233" cy="286.5874281184537" r="6" fill="#5cb3ff" opacity="0.9"/>
  <rect x="423.86664873203233" y="278.5874281184537" width="40" height="16" fill="#1e3a72" rx="3" ry="3"/>
  <text x="425.86664873203233" y="291.5874281184537" font-family="Consolas, monospace" font-weight="600" font-size="12" fill="#a0c8ff">HostA</text>
  <circle cx="273.6464758633277" cy="365.57035741757886" r="6" fill="#5cb3ff" opacity="0.9"/>
  <rect x="283.6464758633277" y="357.57035741757886" width="64" height="16" fill="#1e3a72" rx="3" ry="3"/>
  <text x="285.6464758633277" y="370.57035741757886" font-family="Consolas, monospace" font-weight="600" font-size="12" fill="#a0c8ff">Server42</text>
  <circle cx="137.1539824501537" cy="362.5671108990365" r="6" fill="#5cb3ff" opacity="0.9"/>
  <rect x="147.1539824501537" y="354.5671108990365" width="104" height="16" fill="#1e3a72" rx="3" ry="3"/>
  <text x="149.1539824501537" y="367.5671108990365" font-family="Consolas, monospace" font-weight="600" font-size="12" fill="#a0c8ff">Workstation12</text>
  <circle cx="61.45840205067739" cy="175.01617276812294" r="6" fill="#5cb3ff" opacity="0.9"/>
  <rect x="71.45840205067739" y="167.01617276812294" width="56" height="16" fill="#1e3a72" rx="3" ry="3"/>
  <text x="73.45840205067739" y="180.01617276812294" font-family="Consolas, monospace" font-weight="600" font-size="12" fill="#a0c8ff">Router1</text>
  <circle cx="226.92663858785127" cy="90.57079528623817" r="6" fill="#5cb3ff" opacity="0.9"/>
  <rect x="236.92663858785127" y="82.57079528623817" width="64" height="16" fill="#1e3a72" rx="3" ry="3"/>
  <text x="238.92663858785127" y="95.57079528623817" font-family="Consolas, monospace" font-weight="600" font-size="12" fill="#a0c8ff">DBServer</text>
  <circle cx="370.2275553302262" cy="130.7261063532883" r="6" fill="#5cb3ff" opacity="0.9"/>
  <rect x="380.2275553302262" y="122.72610635328829" width="64" height="16" fill="#1e3a72" rx="3" ry="3"/>
  <text x="382.2275553302262" y="135.7261063532883" font-family="Consolas, monospace" font-weight="600" font-size="12" fill="#a0c8ff">Firewall</text>
  <circle cx="379.46725773284436" cy="227.79819601532785" r="6" fill="#5cb3ff" opacity="0.9"/>
  <rect x="389.46725773284436" y="219.79819601532785" width="40" height="16" fill="#1e3a72" rx="3" ry="3"/>
  <text x="391.46725773284436" y="232.79819601532785" font-family="Consolas, monospace" font-weight="600" font-size="12" fill="#a0c8ff">HostB</text>
  <circle cx="362.1296458404425" cy="385.5484441926058" r="6" fill="#5cb3ff" opacity="0.9"/>
  <rect x="372.1296458404425" y="377.5484441926058" width="56" height="16" fill="#1e3a72" rx="3" ry="3"/>
  <text x="374.1296458404425" y="390.5484441926058" font-family="Consolas, monospace" font-weight="600" font-size="12" fill="#a0c8ff">SensorX</text>
  <circle cx="207.64761936218488" cy="360.74072828613356" r="6" fill="#5cb3ff" opacity="0.9"/>
  <rect x="217.64761936218488" y="352.74072828613356" width="40" height="16" fill="#1e3a72" rx="3" ry="3"/>
  <text x="219.64761936218488" y="365.74072828613356" font-family="Consolas, monospace" font-weight="600" font-size="12" fill="#a0c8ff">Node9</text>
  <circle cx="110.49468924807309" cy="228.66975344280448" r="6" fill="#5cb3ff" opacity="0.9"/>
  <rect x="120.49468924807309" y="220.66975344280448" width="40" height="16" fill="#1e3a72" rx="3" ry="3"/>
  <text x="122.49468924807309" y="233.66975344280448" font-family="Consolas, monospace" font-weight="600" font-size="12" fill="#a0c8ff">Proxy</text>
  <text x="10" y="460" font-family="Consolas, monospace" font-size="12" fill="#5cb3ff">● Host / Server</text>
</svg>