<svg width="700" height="150" xmlns="http://www.w3.org/2000/svg">
<style>.stage { fill: #0078d7; stroke: #333; stroke-width: 2; } .label { font: bold 12px sans-serif; fill: white; }</style>

<rect x="20.0" y="50.0" width="100" height="50" rx="8" ry="8" class="stage">
  <animate attributeName="fill" values="#0078d7;#00c0ff;#0078d7" dur="2s" repeatCount="indefinite" begin="0.0s"/>
</rect>
<text x="70.0" y="80.0" class="label" text-anchor="middle">Detection</text>

<rect x="132.0" y="50.0" width="100" height="50" rx="8" ry="8" class="stage">
  <animate attributeName="fill" values="#0078d7;#00c0ff;#0078d7" dur="2s" repeatCount="indefinite" begin="0.5s"/>
</rect>
<text x="182.0" y="80.0" class="label" text-anchor="middle">Triage</text>

<rect x="244.0" y="50.0" width="100" height="50" rx="8" ry="8" class="stage">
  <animate attributeName="fill" values="#0078d7;#00c0ff;#0078d7" dur="2s" repeatCount="indefinite" begin="1.0s"/>
</rect>
<text x="294.0" y="80.0" class="label" text-anchor="middle">Investigation</text>

<rect x="356.0" y="50.0" width="100" height="50" rx="8" ry="8" class="stage">
  <animate attributeName="fill" values="#0078d7;#00c0ff;#0078d7" dur="2s" repeatCount="indefinite" begin="1.5s"/>
</rect>
<text x="406.0" y="80.0" class="label" text-anchor="middle">Containment</text>

<rect x="468.0" y="50.0" width="100" height="50" rx="8" ry="8" class="stage">
  <animate attributeName="fill" values="#0078d7;#00c0ff;#0078d7" dur="2s" repeatCount="indefinite" begin="2.0s"/>
</rect>
<text x="518.0" y="80.0" class="label" text-anchor="middle">Reporting</text>

<rect x="580.0" y="50.0" width="100" height="50" rx="8" ry="8" class="stage">
  <animate attributeName="fill" values="#0078d7;#00c0ff;#0078d7" dur="2s" repeatCount="indefinite" begin="2.5s"/>
</rect>
<text x="630.0" y="80.0" class="label" text-anchor="middle">Remediation</text>
<line x1="126.0" y1="75.0" x2="38.0" y2="75.0" stroke="#333" stroke-width="2" marker-end="url(#arrow)"/>
<line x1="238.0" y1="75.0" x2="150.0" y2="75.0" stroke="#333" stroke-width="2" marker-end="url(#arrow)"/>
<line x1="350.0" y1="75.0" x2="262.0" y2="75.0" stroke="#333" stroke-width="2" marker-end="url(#arrow)"/>
<line x1="462.0" y1="75.0" x2="374.0" y2="75.0" stroke="#333" stroke-width="2" marker-end="url(#arrow)"/>
<line x1="574.0" y1="75.0" x2="486.0" y2="75.0" stroke="#333" stroke-width="2" marker-end="url(#arrow)"/>

<defs>
<marker id="arrow" markerWidth="10" markerHeight="10" refX="0" refY="3" orient="auto" markerUnits="strokeWidth">
<path d="M0,0 L0,6 L9,3 z" fill="#333" />
</marker>
</defs>
</svg>