<svg width="1000" height="600" xmlns="http://www.w3.org/2000/svg">
<rect width="100%" height="100%" fill="#0a0a23"/>
<rect x="0" y="0" width="142" height="600" fill="#101040" opacity="0.8"/>
<circle cx="20" cy="25.0" r="8" fill="#00ffff" />
<text x="40" y="30.0" font-size="14" fill="#00ffff">SOC</text>
<circle cx="71.0" cy="80" r="15" fill="#00ffff" />
<circle cx="71.0" cy="130" r="15" fill="#00ffff" />
<circle cx="71.0" cy="180" r="15" fill="#00ffff" />
<circle cx="71.0" cy="230" r="15" fill="#00ffff" />
<circle cx="71.0" cy="280" r="15" fill="#00ffff" />
<rect x="142" y="0" width="142" height="600" fill="#101040" opacity="0.8"/>
<circle cx="162" cy="25.0" r="8" fill="#ffa500" />
<text x="182" y="30.0" font-size="14" fill="#ffa500">IR</text>
<circle cx="213.0" cy="80" r="15" fill="#ffa500" />
<circle cx="213.0" cy="130" r="15" fill="#ffa500" />
<rect x="284" y="0" width="142" height="600" fill="#101040" opacity="0.8"/>
<circle cx="304" cy="25.0" r="8" fill="#1e90ff" />
<text x="324" y="30.0" font-size="14" fill="#1e90ff">SIEM</text>
<circle cx="355.0" cy="80" r="15" fill="#1e90ff" />
<circle cx="355.0" cy="130" r="15" fill="#1e90ff" />
<circle cx="355.0" cy="180" r="15" fill="#1e90ff" />
<circle cx="355.0" cy="230" r="15" fill="#1e90ff" />
<rect x="426" y="0" width="142" height="600" fill="#101040" opacity="0.8"/>
<circle cx="446" cy="25.0" r="8" fill="#9932cc" />
<text x="466" y="30.0" font-size="14" fill="#9932cc">SOAR</text>
<circle cx="497.0" cy="80" r="15" fill="#9932cc" />
<circle cx="497.0" cy="130" r="15" fill="#9932cc" />
<circle cx="497.0" cy="180" r="15" fill="#9932cc" />
<rect x="568" y="0" width="142" height="600" fill="#101040" opacity="0.8"/>
<circle cx="588" cy="25.0" r="8" fill="#32cd32" />
<text x="608" y="30.0" font-size="14" fill="#32cd32">EDR</text>
<circle cx="639.0" cy="80" r="15" fill="#32cd32" />
<circle cx="639.0" cy="130" r="15" fill="#32cd32" />
<rect x="710" y="0" width="142" height="600" fill="#101040" opacity="0.8"/>
<circle cx="730" cy="25.0" r="8" fill="#ff69b4" />
<text x="750" y="30.0" font-size="14" fill="#ff69b4">Data Automation</text>
<circle cx="781.0" cy="80" r="15" fill="#ff69b4" />
<circle cx="781.0" cy="130" r="15" fill="#ff69b4" />
<circle cx="781.0" cy="180" r="15" fill="#ff69b4" />
<circle cx="781.0" cy="230" r="15" fill="#ff69b4" />
<circle cx="781.0" cy="280" r="15" fill="#ff69b4" />
<circle cx="781.0" cy="330" r="15" fill="#ff69b4" />
<rect x="852" y="0" width="142" height="600" fill="#101040" opacity="0.8"/>
<circle cx="872" cy="25.0" r="8" fill="#ffff00" />
<text x="892" y="30.0" font-size="14" fill="#ffff00">Data Analysis & Intelligence</text>
<circle cx="923.0" cy="80" r="15" fill="#ffff00" />
<circle cx="923.0" cy="130" r="15" fill="#ffff00" />
<circle cx="923.0" cy="180" r="15" fill="#ffff00" />
<circle cx="923.0" cy="230" r="15" fill="#ffff00" />
<text x="500.0" y="580" text-anchor="middle" font-size="14" fill="#aaa">Last update: 2025-12-23 05:41 UTC</text>
</svg>