<?xml version="1.0" encoding="UTF-8"?>
<svg xmlns="http://www.w3.org/2000/svg" width="400" height="400" viewBox="0 0 400 400" role="img" aria-label="Blue Team Capability Radar">

  <defs>
    <!-- Glow -->
    <filter id="glow">
      <feGaussianBlur stdDeviation="4" result="blur"/>
      <feMerge>
        <feMergeNode in="blur"/>
        <feMergeNode in="SourceGraphic"/>
      </feMerge>
    </filter>
  </defs>

  <!-- Background -->
  <rect width="100%" height="100%" fill="#0d1117"/>

  <!-- Grid rings -->
  <circle cx="200" cy="200" r="120" fill="none" stroke="#30363d"/>
  <circle cx="200" cy="200" r="80" fill="none" stroke="#30363d"/>
  <circle cx="200" cy="200" r="40" fill="none" stroke="#30363d"/>

  <!-- Axes -->
  <g stroke="#30363d">
    <line x1="200" y1="80" x2="200" y2="320"/>
    <line x1="80" y1="200" x2="320" y2="200"/>
    <line x1="115" y1="115" x2="285" y2="285"/>
    <line x1="285" y1="115" x2="115" y2="285"/>
  </g>

  <!-- Focus polygon -->
  <!-- Adjust these points to represent focus strength -->
  <polygon
    fill="rgba(88,166,255,0.25)"
    stroke="rgba(88,166,255,0.9)"
    stroke-width="2"
    filter="url(#glow)"
    points="
      200,90
      285,120
      310,200
      270,280
      200,300
      130,270
      90,200
      120,120
    ">
    <!-- Breathing animation -->
    <animate
      attributeName="points"
      dur="6s"
      repeatCount="indefinite"
      values="
        200,95 280,125 305,200 265,275 200,295 135,265 95,200 125,125;
        200,85 290,115 315,200 275,285 200,305 125,275 85,200 115,115;
        200,95 280,125 305,200 265,275 200,295 135,265 95,200 125,125
      "/>
  </polygon>

  <!-- Labels -->
  <g fill="#c9d1d9" font-size="11" text-anchor="middle">
    <text x="200" y="50">SOC Operations</text>
    <text x="306" y="94">Incident Response</text>
    <text x="350" y="200">SIEM Engineering</text>
    <text x="306" y="306">Endpoint Detection &amp; Telemetry</text>
    <text x="200" y="350">OSINT &amp; Log Analysis</text>
    <text x="94" y="306">SOAR &amp; Automation</text>
    <text x="50" y="200">Anomaly Detection &amp; Metrics</text>
    <text x="94" y="94">Risk Identification &amp; Mitigation</text>
  </g>

</svg>

