<?xml version="1.0" encoding="UTF-8"?>
<svg xmlns="http://www.w3.org/2000/svg"
     width="400"
     height="400"
     viewBox="0 0 400 400"
     role="img"
     aria-label="Blue Team Capability Radar">

  <rect width="100%" height="100%" fill="#0d1117"/>

  <!-- Radar rings -->
  <circle cx="200" cy="200" r="120" fill="none" stroke="#30363d"/>
  <circle cx="200" cy="200" r="80" fill="none" stroke="#30363d"/>
  <circle cx="200" cy="200" r="40" fill="none" stroke="#30363d"/>

  <!-- Axes -->
  <g stroke="#30363d">
    <line x1="200" y1="80" x2="200" y2="320"/>
    <line x1="80" y1="200" x2="320" y2="200"/>
    <line x1="115" y1="115" x2="285" y2="285"/>
    <line x1="285" y1="115" x2="115" y2="285"/>
  </g>

  <!-- Labels (STATIC) -->
  <g fill="#c9d1d9" font-size="11" text-anchor="middle">
    <text x="200" y="50">SOC Operations</text>
    <text x="310" y="95">Incident Response</text>
    <text x="350" y="205">SIEM Engineering</text>
    <text x="310" y="315">Endpoint Detection &amp; Telemetry</text>
    <text x="200" y="360">OSINT &amp; Log Analysis</text>
    <text x="90" y="315">SOAR &amp; Automation</text>
    <text x="45" y="205">Anomaly Detection</text>
    <text x="90" y="95">Risk Identification</text>
  </g>

  <!-- Focus Polygon (ROTATES) -->
  <polygon
    points="200,90 290,120 310,200 270,290 200,310 120,270 90,200 120,120"
    fill="rgba(88,166,255,0.28)"
    stroke="rgba(88,166,255,0.95)"
    stroke-width="2">

    <animateTransform
      attributeName="transform"
      type="rotate"
      from="0 200 200"
      to="360 200 200"
      dur="25s"
      repeatCount="indefinite"/>
  </polygon>

</svg>
