<svg xmlns="http://www.w3.org/2000/svg" width="400" height="180" viewBox="0 0 400 180">
  <defs>
    <linearGradient id="bg" x1="0" y1="0" x2="1" y2="1">
      <stop offset="0%" stop-color="#171927"/>
      <stop offset="100%" stop-color="#101522"/>
    </linearGradient>
    <linearGradient id="header" x1="0" y1="0" x2="1" y2="0">
      <stop offset="0%" stop-color="#245b85"/>
      <stop offset="100%" stop-color="#173b62"/>
    </linearGradient>
  </defs>

  <rect x="1" y="1" width="398" height="178" rx="12" fill="url(#bg)" stroke="#536f91" stroke-width="2"/>
  <rect x="1" y="1" width="398" height="38" rx="12" fill="url(#header)"/>
  <rect x="1" y="28" width="398" height="11" fill="#173b62"/>

  <text x="200" y="25" text-anchor="middle" font-family="Segoe UI,Arial,sans-serif"
        font-size="16" font-weight="700" fill="#eef6ff">
    Integrated Security Research &amp; Diagnostics
  </text>

  <text x="68" y="57" text-anchor="middle" font-family="Segoe UI,Arial,sans-serif"
        font-size="9" font-weight="700" fill="#7aa2f7">INGEST</text>

  <path d="M22 76 H56" stroke="#bb9af7" stroke-width="4" stroke-linecap="round"/>
  <path d="M22 96 H56" stroke="#70a5fd" stroke-width="4" stroke-linecap="round"/>
  <path d="M22 116 H56" stroke="#38bdae" stroke-width="4" stroke-linecap="round"/>
  <path d="M56 76 L78 89" stroke="#bb9af7" stroke-width="4" stroke-linecap="round"/>
  <path d="M56 96 H78" stroke="#70a5fd" stroke-width="4" stroke-linecap="round"/>
  <path d="M56 116 L78 103" stroke="#38bdae" stroke-width="4" stroke-linecap="round"/>
  <polygon points="76,88 90,96 76,104" fill="#70a5fd"/>

  <text x="58" y="136" text-anchor="middle" font-family="Segoe UI,Arial,sans-serif"
        font-size="10" font-weight="700" fill="#dbe8f7">79 EVENTS</text>
  <text x="58" y="149" text-anchor="middle" font-family="Segoe UI,Arial,sans-serif"
        font-size="8" fill="#8199b5">LAST 7 DAYS</text>

  <text x="200" y="57" text-anchor="middle" font-family="Segoe UI,Arial,sans-serif"
        font-size="9" font-weight="700" fill="#7aa2f7">ANALYZE</text>

  <rect x="164" y="68" width="72" height="62" rx="9" fill="#18293a"
        stroke="#70a5fd" stroke-width="2"/>

  <g stroke="#607c9e" stroke-width="3" stroke-linecap="round">
    <path d="M176 62 V68"/><path d="M188 62 V68"/><path d="M200 62 V68"/>
    <path d="M212 62 V68"/><path d="M224 62 V68"/>
    <path d="M176 130 V136"/><path d="M188 130 V136"/><path d="M200 130 V136"/>
    <path d="M212 130 V136"/><path d="M224 130 V136"/>
    <path d="M158 81 H164"/><path d="M158 93 H164"/><path d="M158 105 H164"/><path d="M158 117 H164"/>
    <path d="M236 81 H242"/><path d="M236 93 H242"/><path d="M236 105 H242"/><path d="M236 117 H242"/>
  </g>

  <circle cx="185" cy="88" r="5" fill="#70a5fd"/>
  <circle cx="211" cy="85" r="5" fill="#38bdae"/>
  <circle cx="214" cy="111" r="6" fill="#9ece6a"/>
  <circle cx="185" cy="113" r="5" fill="#bb9af7"/>
  <circle cx="200" cy="100" r="5" fill="#edf5ff"/>

  <g stroke="#d8e4ef" stroke-width="1.8" fill="none">
    <path d="M185 88 L200 100"/><path d="M211 85 L200 100"/>
    <path d="M214 111 L200 100"/><path d="M185 113 L200 100"/>
  </g>

  <text x="200" y="145" text-anchor="middle" font-family="Segoe UI,Arial,sans-serif"
        font-size="9" font-weight="700" fill="#dbe8f7">0 COMMITS • 13 REPOS</text>
  <text x="200" y="157" text-anchor="middle" font-family="Segoe UI,Arial,sans-serif"
        font-size="8" fill="#8199b5">7D PUSHES • 30D REPOSITORIES</text>

  <path d="M249 99 H281" stroke="#9ece6a" stroke-width="4" stroke-linecap="round"/>
  <polygon points="280,92 294,99 280,106" fill="#9ece6a"/>

  <text x="334" y="57" text-anchor="middle" font-family="Segoe UI,Arial,sans-serif"
        font-size="9" font-weight="700" fill="#7aa2f7">VALIDATE</text>

  <circle cx="327" cy="93" r="27" fill="#18293a" stroke="#8da8c7" stroke-width="3"/>
  <circle cx="327" cy="93" r="18" fill="#112032" stroke="#4e6886" stroke-width="1.5"/>
  <path d="M316 93 L324 101 L340 83" fill="none" stroke="#9ece6a"
        stroke-width="5" stroke-linecap="round" stroke-linejoin="round"/>
  <path d="M347 113 L365 131" stroke="#8da8c7" stroke-width="8" stroke-linecap="round"/>
  <path d="M347 113 L365 131" stroke="#5d78a0" stroke-width="4" stroke-linecap="round"/>

  <text x="329" y="139" text-anchor="middle" font-family="Segoe UI,Arial,sans-serif"
        font-size="9" font-weight="700" fill="#9ece6a">SYNC OK</text>
  <text x="329" y="151" text-anchor="middle" font-family="Segoe UI,Arial,sans-serif"
        font-size="8" fill="#dbe8f7">AUG 25</text>
  <text x="329" y="162" text-anchor="middle" font-family="Segoe UI,Arial,sans-serif"
        font-size="8" fill="#8199b5">9:46 PM EDT</text>

  <text x="200" y="174" text-anchor="middle" font-family="Segoe UI,Arial,sans-serif"
        font-size="7.5" letter-spacing="0.9" fill="#657f9d">
    BLUE TEAM • FORENSICS • SECURITY RESEARCH
  </text>
</svg>
